<svg width="24" height="21" viewBox="0 0 24 21" fill="none" xmlns="http://www.w3.org/2000/svg">
<path d="M19.7748 12.0959V19.9525C19.7748 20.2362 19.6842 20.4817 19.503 20.689C19.3218 20.8963 19.1071 21 18.8591 21H13.365V14.7147H9.70221V21H4.20806C3.96005 21 3.74544 20.8963 3.56421 20.689C3.38298 20.4817 3.29236 20.2362 3.29236 19.9525V12.0959C3.29236 12.085 3.29475 12.0686 3.29952 12.0468C3.30429 12.0249 3.30667 12.0086 3.30667 11.9977L11.5336 4.23928L19.7605 11.9977C19.7701 12.0195 19.7748 12.0522 19.7748 12.0959ZM22.9655 10.9665L22.0784 12.1777C22.0021 12.2759 21.9019 12.3359 21.7779 12.3578H21.735C21.611 12.3578 21.5108 12.3196 21.4345 12.2432L11.5336 2.79891L1.63267 12.2432C1.51821 12.3305 1.40374 12.3687 1.28928 12.3578C1.16528 12.3359 1.06513 12.2759 0.988822 12.1777L0.101744 10.9665C0.0254359 10.8574 -0.00794873 10.7292 0.00158975 10.5818C0.0111282 10.4345 0.0635898 10.3172 0.158975 10.2299L10.4462 0.425565C10.7514 0.141855 11.1139 0 11.5336 0C11.9533 0 12.3158 0.141855 12.621 0.425565L16.1121 3.76461V0.572876C16.1121 0.420109 16.155 0.294622 16.2408 0.196415C16.3267 0.0982073 16.4364 0.0491037 16.5699 0.0491037H19.317C19.4505 0.0491037 19.5602 0.0982073 19.6461 0.196415C19.7319 0.294622 19.7748 0.420109 19.7748 0.572876V7.25097L22.9082 10.2299C23.0036 10.3172 23.0561 10.4345 23.0656 10.5818C23.0751 10.7292 23.0418 10.8574 22.9655 10.9665Z" fill="white"/>
</svg>
