<svg width="26" height="25" viewBox="0 0 26 25" fill="none" xmlns="http://www.w3.org/2000/svg">
<path d="M12.6855 15C14.0663 15 15.1855 13.8807 15.1855 12.5C15.1855 11.1193 14.0663 10 12.6855 10C11.3048 10 10.1855 11.1193 10.1855 12.5C10.1855 13.8807 11.3048 15 12.6855 15Z" stroke="white" stroke-opacity="0.8" stroke-width="2" stroke-linecap="round" stroke-linejoin="round"/>
<path d="M20.4219 15.6364C20.2827 15.9517 20.2412 16.3015 20.3027 16.6406C20.3642 16.9798 20.5259 17.2927 20.7669 17.5391L20.8296 17.6018C21.024 17.796 21.1783 18.0266 21.2835 18.2804C21.3887 18.5343 21.4429 18.8064 21.4429 19.0811C21.4429 19.3559 21.3887 19.628 21.2835 19.8818C21.1783 20.1357 21.024 20.3663 20.8296 20.5605C20.6354 20.7549 20.4048 20.9091 20.151 21.0143C19.8972 21.1195 19.6251 21.1737 19.3503 21.1737C19.0755 21.1737 18.8035 21.1195 18.5496 21.0143C18.2958 20.9091 18.0652 20.7549 17.871 20.5605L17.8083 20.4977C17.5619 20.2567 17.2489 20.095 16.9098 20.0335C16.5707 19.972 16.2209 20.0136 15.9055 20.1527C15.5963 20.2853 15.3326 20.5053 15.1469 20.7858C14.9611 21.0663 14.8614 21.3949 14.8601 21.7314V21.9091C14.8601 22.4636 14.6398 22.9955 14.2477 23.3876C13.8556 23.7797 13.3237 24 12.7692 24C12.2146 24 11.6828 23.7797 11.2907 23.3876C10.8986 22.9955 10.6783 22.4636 10.6783 21.9091V21.815C10.6702 21.469 10.5582 21.1334 10.3568 20.8518C10.1554 20.5703 9.87404 20.3558 9.54918 20.2364C9.23386 20.0972 8.88407 20.0557 8.54493 20.1172C8.20579 20.1787 7.89285 20.3403 7.64646 20.5814L7.58373 20.6441C7.38954 20.8385 7.15894 20.9927 6.9051 21.0979C6.65127 21.2032 6.37919 21.2573 6.10441 21.2573C5.82963 21.2573 5.55755 21.2032 5.30372 21.0979C5.04988 20.9927 4.81928 20.8385 4.62509 20.6441C4.43069 20.4499 4.27646 20.2193 4.17124 19.9655C4.06602 19.7116 4.01186 19.4395 4.01186 19.1648C4.01186 18.89 4.06602 18.6179 4.17124 18.3641C4.27646 18.1102 4.43069 17.8796 4.62509 17.6855L4.68782 17.6227C4.92884 17.3763 5.09051 17.0634 5.15201 16.7243C5.2135 16.3851 5.17199 16.0353 5.03282 15.72C4.90029 15.4108 4.68025 15.1471 4.39976 14.9613C4.11928 14.7756 3.7906 14.6759 3.45418 14.6745H3.27646C2.72191 14.6745 2.19008 14.4543 1.79796 14.0621C1.40584 13.67 1.18555 13.1382 1.18555 12.5836C1.18555 12.0291 1.40584 11.4973 1.79796 11.1051C2.19008 10.713 2.72191 10.4927 3.27646 10.4927H3.37055C3.71659 10.4846 4.05219 10.3726 4.33372 10.1713C4.61526 9.9699 4.8297 9.6885 4.94918 9.36364C5.08835 9.04831 5.12986 8.69852 5.06837 8.35938C5.00688 8.02024 4.8452 7.7073 4.60418 7.46091L4.54146 7.39818C4.34705 7.20399 4.19283 6.97339 4.0876 6.71956C3.98238 6.46572 3.92822 6.19364 3.92822 5.91886C3.92822 5.64409 3.98238 5.372 4.0876 5.11817C4.19283 4.86434 4.34705 4.63373 4.54146 4.43955C4.73565 4.24514 4.96625 4.09092 5.22008 3.98569C5.47391 3.88047 5.746 3.82631 6.02077 3.82631C6.29555 3.82631 6.56763 3.88047 6.82147 3.98569C7.0753 4.09092 7.3059 4.24514 7.50009 4.43955L7.56282 4.50227C7.80921 4.74329 8.12215 4.90497 8.46129 4.96646C8.80043 5.02795 9.15022 4.98644 9.46555 4.84727H9.54918C9.8584 4.71475 10.1221 4.4947 10.3079 4.21421C10.4936 3.93373 10.5933 3.60505 10.5946 3.26864V3.09091C10.5946 2.53637 10.8149 2.00453 11.2071 1.61241C11.5992 1.22029 12.131 1 12.6855 1C13.2401 1 13.7719 1.22029 14.164 1.61241C14.5562 2.00453 14.7765 2.53637 14.7765 3.09091V3.185C14.7778 3.52141 14.8775 3.85009 15.0632 4.13058C15.249 4.41106 15.5127 4.63111 15.8219 4.76364C16.1372 4.9028 16.487 4.94432 16.8262 4.88282C17.1653 4.82133 17.4782 4.65965 17.7246 4.41864L17.7874 4.35591C17.9816 4.1615 18.2122 4.00728 18.466 3.90206C18.7198 3.79683 18.9919 3.74267 19.2667 3.74267C19.5415 3.74267 19.8135 3.79683 20.0674 3.90206C20.3212 4.00728 20.5518 4.1615 20.746 4.35591C20.9404 4.5501 21.0946 4.7807 21.1999 5.03453C21.3051 5.28837 21.3592 5.56045 21.3592 5.83523C21.3592 6.11 21.3051 6.38209 21.1999 6.63592C21.0946 6.88975 20.9404 7.12036 20.746 7.31455L20.6833 7.37727C20.4423 7.62366 20.2806 7.93661 20.2191 8.27575C20.1576 8.61489 20.1991 8.96467 20.3383 9.28V9.36364C20.4708 9.67285 20.6908 9.93656 20.9713 10.1223C21.2518 10.3081 21.5805 10.4077 21.9169 10.4091H22.0946C22.6492 10.4091 23.181 10.6294 23.5731 11.0215C23.9653 11.4136 24.1855 11.9455 24.1855 12.5C24.1855 13.0545 23.9653 13.5864 23.5731 13.9785C23.181 14.3706 22.6492 14.5909 22.0946 14.5909H22.0005C21.6641 14.5923 21.3355 14.6919 21.055 14.8777C20.7745 15.0634 20.5544 15.3271 20.4219 15.6364Z" stroke="white" stroke-opacity="0.8" stroke-width="2" stroke-linecap="round" stroke-linejoin="round"/>
</svg>
